<svg id="icon" xmlns="http://www.w3.org/2000/svg" viewBox="0 0 48 48"><title>ic_csv</title><path id="ic_csv" d="M41.89,17.89h-2v-2l-12-12h-16a4,4,0,0,0-4,4v10h-2a2,2,0,0,0-2,2v14a2,2,0,0,0,2,2h2v4a4,4,0,0,0,4,4h24a4,4,0,0,0,4-4v-4h2a2,2,0,0,0,2-2v-14A2,2,0,0,0,41.89,17.89Zm-30-10H26.23l9.66,9.66v.34h-24Zm7.45,22.73V30h2.55v.61a1.07,1.07,0,0,0,.43.89,2,2,0,0,0,1.22.31,1.89,1.89,0,0,0,1.18-.31,1,1,0,0,0,.42-.88V29.51a.91.91,0,0,0-.29-.68,2.07,2.07,0,0,0-.72-.48q-.43-.2-1.2-.45l-.07,0-.07,0-.15-.05A13.19,13.19,0,0,1,21,27.09a3.55,3.55,0,0,1-1.14-1,2.5,2.5,0,0,1-.46-1.54v-.67a2.62,2.62,0,0,1,.48-1.6,3,3,0,0,1,1.43-1A6.92,6.92,0,0,1,23.52,21a6.39,6.39,0,0,1,2.21.35,2.88,2.88,0,0,1,1.39,1,2.76,2.76,0,0,1,.49,1.62v.67l-2.57,0V24a1.08,1.08,0,0,0-.4-.9,1.72,1.72,0,0,0-1.12-.31,2,2,0,0,0-1.2.29.94.94,0,0,0-.41.81v.8a.93.93,0,0,0,.27.7,2.08,2.08,0,0,0,.7.48c.28.12.67.26,1.16.44l.21.07.2.08.08,0,.08,0a13.27,13.27,0,0,1,1.61.66,3.09,3.09,0,0,1,1,.89,2.41,2.41,0,0,1,.44,1.48v1.09a2.61,2.61,0,0,1-.49,1.62,2.89,2.89,0,0,1-1.41,1,6.41,6.41,0,0,1-2.25.34,6.51,6.51,0,0,1-2.28-.34,3.16,3.16,0,0,1-1.45-1A2.54,2.54,0,0,1,19.34,30.62ZM11.8,33.23a2.83,2.83,0,0,1-1.86-2.78V24.14a2.86,2.86,0,0,1,1.86-2.8A5.74,5.74,0,0,1,14,21a6,6,0,0,1,2.18.37A2.87,2.87,0,0,1,18,24.13v.76H15.4v-.76a1.41,1.41,0,0,0-.16-.7,1.09,1.09,0,0,0-.49-.46,1.87,1.87,0,0,0-.78-.15,1.81,1.81,0,0,0-.76.15,1.13,1.13,0,0,0-.49.45,1.3,1.3,0,0,0-.18.71v6.31a1.26,1.26,0,0,0,.18.71,1.1,1.1,0,0,0,.49.44,1.68,1.68,0,0,0,.76.16,1.8,1.8,0,0,0,.79-.16,1.1,1.1,0,0,0,.48-.45,1.41,1.41,0,0,0,.16-.7v-.76H18v.76a3.14,3.14,0,0,1-.48,1.71,2.9,2.9,0,0,1-1.38,1.09,5.73,5.73,0,0,1-2.17.37A5.74,5.74,0,0,1,11.8,33.23Zm24.09,6.66h-24v-4h24ZM34.8,33.48H32.09l-3.3-12.39H31.5l1.94,9,2-9H38.1Z"/></svg>