<svg xmlns="http://www.w3.org/2000/svg" width="95.219" height="18" viewBox="0 0 95.219 18">
  <g id="logo" transform="translate(-428.757 -415)">
    <g id="组_2" data-name="组 2" transform="translate(428.757 415)">
      <g id="组_1" data-name="组 1" transform="translate(0 0)">
        <path id="路径_1" data-name="路径 1" d="M433.256,428.719V416.8a1.875,1.875,0,0,0-1.912-1.8h-2.25a.337.337,0,0,0-.225.588,2.313,2.313,0,0,1,.563,1.678c.021,3.075,0,8.788,0,11.453,0,4.281,8.234,4.25,10.765.523.157-.231-.087-.506-.306-.333C436.238,431.788,433.256,430.46,433.256,428.719Z" transform="translate(-428.756 -415)"/>
        <path id="路径_2" data-name="路径 2" d="M502.089,546.188a3.11,3.11,0,0,1,3.137,3.136c0,2.483-2.093,6.394-10.94,5.2-.166-.022-.1-.233.029-.224,3.891.293,8.21-1.3,8.21-4.965a1.007,1.007,0,0,0-1.012-1.012c-.876.025-1.29,1.228-2.418,1.238a1.348,1.348,0,0,1-1.294-1.344c0-.3,0-.981,0-1.36a.232.232,0,0,1,.389-.146C499.919,547.973,500.05,546.159,502.089,546.188Z" transform="translate(-489.476 -536.742)"/>
      </g>
      <path id="路径_3" data-name="路径 3" d="M546.093,417.249h-1.2a.525.525,0,0,1-.525-.525V415h1.725a.525.525,0,0,1,.525.525v1.2A.525.525,0,0,1,546.093,417.249Z" transform="translate(-536.044 -415)"/>
      <path id="路径_4" data-name="路径 4" d="M609.263,417.924h-1.875a.525.525,0,0,1-.525-.525V415h2.4a.525.525,0,0,1,.525.525V417.4A.525.525,0,0,1,609.263,417.924Z" transform="translate(-594.039 -415)"/>
      <path id="路径_5" data-name="路径 5" d="M577.34,457.856h-1.2a.525.525,0,0,1-.525-.525v-1.724h1.725a.525.525,0,0,1,.525.525v1.2A.525.525,0,0,1,577.34,457.856Z" transform="translate(-565.041 -452.683)"/>
      <path id="路径_6" data-name="路径 6" d="M545.043,488.192h0a.675.675,0,0,1-.675-.675v-.675h.675a.675.675,0,0,1,.675.675h0A.675.675,0,0,1,545.043,488.192Z" transform="translate(-536.044 -481.67)"/>
    </g>
    <g id="组_3" data-name="组 3" transform="translate(453.505 418.24)">
      <path id="路径_7" data-name="路径 7" d="M774.4,471.073v-9.455h-1.91V472.9H778.9v-1.832Z" transform="translate(-772.485 -461.501)"/>
      <path id="路径_8" data-name="路径 8" d="M876.387,471.081a3.029,3.029,0,0,1-1.254-1.246,3.907,3.907,0,0,1-.439-1.894v-4.363a3.908,3.908,0,0,1,.439-1.894,3.03,3.03,0,0,1,1.254-1.246,4.343,4.343,0,0,1,3.8,0,3.031,3.031,0,0,1,1.254,1.246,3.91,3.91,0,0,1,.439,1.894v4.363a3.91,3.91,0,0,1-.439,1.894,3.03,3.03,0,0,1-1.254,1.246,4.343,4.343,0,0,1-3.8,0Zm2.767-1.685a1.392,1.392,0,0,0,.567-.586,1.927,1.927,0,0,0,.2-.9v-4.3a1.928,1.928,0,0,0-.2-.9,1.392,1.392,0,0,0-.567-.586,1.924,1.924,0,0,0-1.731,0,1.391,1.391,0,0,0-.567.586,1.926,1.926,0,0,0-.2.9v4.3a1.925,1.925,0,0,0,.2.9,1.391,1.391,0,0,0,.567.586,1.924,1.924,0,0,0,1.731,0Z" transform="translate(-867.336 -460)"/>
      <path id="路径_9" data-name="路径 9" d="M1002.808,465.217v2.632a4.128,4.128,0,0,1-.435,1.941,3.063,3.063,0,0,1-1.238,1.281,3.771,3.771,0,0,1-1.875.45,4.066,4.066,0,0,1-1.906-.423,2.969,2.969,0,0,1-1.25-1.211,3.745,3.745,0,0,1-.439-1.851V463.7a4.218,4.218,0,0,1,.431-1.96,3.035,3.035,0,0,1,1.234-1.285,4.167,4.167,0,0,1,3.649-.058,2.908,2.908,0,0,1,1.192,1.168,4.633,4.633,0,0,1,.543,1.894h-2.026a2.151,2.151,0,0,0-.26-.838,1.313,1.313,0,0,0-.508-.5,1.468,1.468,0,0,0-.706-.167,1.609,1.609,0,0,0-.835.213,1.414,1.414,0,0,0-.555.606,2.067,2.067,0,0,0-.194.928v4.339a1.573,1.573,0,0,0,.2.815,1.386,1.386,0,0,0,.567.532,1.839,1.839,0,0,0,.862.19,1.713,1.713,0,0,0,.85-.2,1.352,1.352,0,0,0,.555-.586,2,2,0,0,0,.194-.912v-.815h-1.522v-1.84Z" transform="translate(-979.597 -460)"/>
      <path id="路径_10" data-name="路径 10" d="M1120.325,472.9h-1.964V461.617h1.964Z" transform="translate(-1093.458 -461.501)"/>
      <path id="路径_11" data-name="路径 11" d="M1172.99,471.081a3.028,3.028,0,0,1-1.254-1.246,3.907,3.907,0,0,1-.439-1.894v-4.363a3.908,3.908,0,0,1,.439-1.894,3.029,3.029,0,0,1,1.254-1.246,4.343,4.343,0,0,1,3.8,0,3.031,3.031,0,0,1,1.254,1.246,3.911,3.911,0,0,1,.439,1.894v4.363a3.91,3.91,0,0,1-.439,1.894,3.03,3.03,0,0,1-1.254,1.246,4.343,4.343,0,0,1-3.8,0Zm2.767-1.685a1.392,1.392,0,0,0,.567-.586,1.926,1.926,0,0,0,.2-.9v-4.3a1.927,1.927,0,0,0-.2-.9,1.392,1.392,0,0,0-.567-.586,1.924,1.924,0,0,0-1.731,0,1.391,1.391,0,0,0-.567.586,1.928,1.928,0,0,0-.2.9v4.3a1.928,1.928,0,0,0,.2.9,1.39,1.39,0,0,0,.567.586,1.924,1.924,0,0,0,1.731,0Z" transform="translate(-1142.583 -460)"/>
      <path id="路径_12" data-name="路径 12" d="M1293.888,471.085a2.88,2.88,0,0,1-1.2-1.261,4.357,4.357,0,0,1-.415-1.976V463.68a4.357,4.357,0,0,1,.415-1.976,2.9,2.9,0,0,1,1.2-1.265,3.814,3.814,0,0,1,1.882-.439,3.554,3.554,0,0,1,1.77.415,2.93,2.93,0,0,1,1.168,1.25,5.453,5.453,0,0,1,.532,2.061h-1.964a2.938,2.938,0,0,0-.26-1,1.522,1.522,0,0,0-.512-.609,1.291,1.291,0,0,0-.734-.21,1.542,1.542,0,0,0-.827.214,1.35,1.35,0,0,0-.524.605,2.285,2.285,0,0,0-.178.951v4.169a2.27,2.27,0,0,0,.178.939,1.346,1.346,0,0,0,.524.609,1.54,1.54,0,0,0,.827.214,1.328,1.328,0,0,0,.738-.206,1.453,1.453,0,0,0,.512-.606,3.02,3.02,0,0,0,.256-1.005h1.964a5.314,5.314,0,0,1-.528,2.061,2.954,2.954,0,0,1-1.172,1.25,3.552,3.552,0,0,1-1.77.415A3.839,3.839,0,0,1,1293.888,471.085Z" transform="translate(-1254.845 -460)"/>
      <path id="路径_13" data-name="路径 13" d="M1417.449,463.465v-1.848h-6.474V472.9h6.474v-1.848h-4.564v-2.833h3.9v-1.848h-3.9v-2.911Z" transform="translate(-1365.004 -461.501)"/>
      <path id="路径_14" data-name="路径 14" d="M1518.058,472.9h2.018l-3.633-11.287h-1.351L1511.46,472.9h2.018l.566-1.964h3.449Zm-3.491-3.781,1.2-4.169,1.2,4.169Z" transform="translate(-1458.254 -461.501)"/>
      <path id="路径_15" data-name="路径 15" d="M1653.976,461.617v7.891l-3.633-7.891h-1.956V472.9h1.824v-7.66l3.61,7.66h1.972V461.617Z" transform="translate(-1585.322 -461.501)"/>
    </g>
  </g>
</svg>
