<svg id="logo_window" xmlns="http://www.w3.org/2000/svg" viewBox="0 0 24 24"><title>logo_window</title><path id="logo_window-2" data-name="logo_window" d="M8.5,16.72V4.8A1.87,1.87,0,0,0,6.59,3H4.34A.34.34,0,0,0,4,3.34a.36.36,0,0,0,.11.25,2.33,2.33,0,0,1,.57,1.68c0,3.07,0,8.78,0,11.45,0,4.28,8.23,4.25,10.76.52.16-.23-.09-.5-.31-.33C11.48,19.79,8.5,18.46,8.5,16.72Zm8.11-4.27a3.11,3.11,0,0,1,3.14,3.08h0v.05c0,2.49-2.09,6.4-10.94,5.2-.17,0-.1-.23,0-.22,3.89.29,8.21-1.3,8.21-5a1,1,0,0,0-1-1h0c-.88,0-1.29,1.23-2.42,1.24a1.34,1.34,0,0,1-1.29-1.34V13.12a.22.22,0,0,1,.25-.21h0a.16.16,0,0,1,.13.06c1.73,1.26,1.86-.55,3.9-.52Zm-2.56-7.2h-1.2a.53.53,0,0,1-.53-.53h0V3h1.73a.52.52,0,0,1,.52.52h0v1.2a.52.52,0,0,1-.52.53Zm5.17.67H17.35a.52.52,0,0,1-.53-.52h0V3h2.41a.52.52,0,0,1,.52.52h0V5.4a.52.52,0,0,1-.52.52h0ZM16.3,8.17H15.1a.53.53,0,0,1-.53-.53h0V5.92H16.3a.52.52,0,0,1,.52.53h0v1.2a.52.52,0,0,1-.52.52ZM13,9.52h0a.68.68,0,0,1-.68-.68V8.17H13a.67.67,0,0,1,.67.67h0a.67.67,0,0,1-.67.68Z" style="fill: #FFF;
    fill-rule: evenodd"/></svg>
