<svg id="icon" xmlns="http://www.w3.org/2000/svg" viewBox="0 0 24 24"><title>ic_label_manage</title><path id="ic_label_manage" d="M15,8a1,1,0,1,1,1,1A1,1,0,0,1,15,8Zm6,3.36-10,10a2.1,2.1,0,0,1-3,0l0,0L2.61,16a2.1,2.1,0,0,1,0-3l0,0,10-10H21ZM18.91,5.09H13.5L4.09,14.5,9.5,19.91l9.41-9.41Zm4.11,15c0-.14,0-.28,0-.43a2,2,0,0,0,0-.43l.93-.72a.22.22,0,0,0,.05-.28l-.88-1.51a.22.22,0,0,0-.26-.1L21.77,17a3.24,3.24,0,0,0-.74-.43l-.17-1.16a.22.22,0,0,0-.22-.19H18.89a.22.22,0,0,0-.22.19l-.16,1.16a3.66,3.66,0,0,0-.74.43l-1.09-.44a.2.2,0,0,0-.26.1l-.87,1.51a.21.21,0,0,0,0,.28l.92.72a2.33,2.33,0,0,0,0,.86l-.92.72a.22.22,0,0,0,0,.28l.87,1.51a.22.22,0,0,0,.26.1l1.09-.44a3.24,3.24,0,0,0,.74.43l.16,1.16a.22.22,0,0,0,.22.19h1.75a.21.21,0,0,0,.21-.19L21,22.65a3.19,3.19,0,0,0,.74-.43l1.09.44a.2.2,0,0,0,.26-.1L24,21.05a.21.21,0,0,0-.05-.28Zm-3.26,1.13a1.56,1.56,0,1,1,1.57-1.56A1.56,1.56,0,0,1,19.76,21.18Z"/></svg>