<svg id="logo_login" xmlns="http://www.w3.org/2000/svg" viewBox="0 0 120 95"><title>logo_login</title><path id="text" d="M2.88,91.27v-16H-.37v19.1H10.55v-3.1ZM15,93.83a5.18,5.18,0,0,1-2.14-2.11,6.62,6.62,0,0,1-.74-3.21V81.13a6.62,6.62,0,0,1,.74-3.21A5.18,5.18,0,0,1,15,75.81a7.44,7.44,0,0,1,6.48,0,5.16,5.16,0,0,1,2.13,2.11,6.52,6.52,0,0,1,.75,3.21v7.38a6.52,6.52,0,0,1-.75,3.21,5.16,5.16,0,0,1-2.13,2.11A7.44,7.44,0,0,1,15,93.83ZM19.75,91a2.32,2.32,0,0,0,1-1,3.19,3.19,0,0,0,.33-1.52V81.18a3.25,3.25,0,0,0-.33-1.53,2.43,2.43,0,0,0-1-1,3.33,3.33,0,0,0-2.95,0,2.47,2.47,0,0,0-1,1,3.39,3.39,0,0,0-.34,1.53v7.28A3.32,3.32,0,0,0,15.84,90a2.35,2.35,0,0,0,1,1A3.26,3.26,0,0,0,19.75,91Zm19.4-7.07v4.45a7,7,0,0,1-.74,3.29,5.25,5.25,0,0,1-2.11,2.17,6.56,6.56,0,0,1-3.19.76,7,7,0,0,1-3.24-.72,5,5,0,0,1-2.13-2A6.22,6.22,0,0,1,27,88.67V81.32A7.22,7.22,0,0,1,27.72,78a5.23,5.23,0,0,1,2.1-2.17,7.14,7.14,0,0,1,6.22-.1,5,5,0,0,1,2,2,7.82,7.82,0,0,1,.92,3.2H35.54a3.79,3.79,0,0,0-.44-1.42,2.26,2.26,0,0,0-.87-.84,2.5,2.5,0,0,0-1.2-.29,2.74,2.74,0,0,0-1.42.37,2.32,2.32,0,0,0-.94,1,3.41,3.41,0,0,0-.33,1.57v7.35a2.57,2.57,0,0,0,.34,1.38,2.34,2.34,0,0,0,1,.9,3.18,3.18,0,0,0,1.46.32,3,3,0,0,0,1.45-.34,2.38,2.38,0,0,0,.95-1,3.46,3.46,0,0,0,.33-1.55V87h-2.6V83.9Zm6.23,10.47H42V75.26h3.35Zm6-.54a5.22,5.22,0,0,1-2.13-2.11,6.63,6.63,0,0,1-.75-3.21V81.13a6.63,6.63,0,0,1,.75-3.21,5.22,5.22,0,0,1,2.13-2.11,7.44,7.44,0,0,1,6.48,0A5.18,5.18,0,0,1,60,77.92a6.62,6.62,0,0,1,.74,3.21v7.38A6.62,6.62,0,0,1,60,91.72a5.18,5.18,0,0,1-2.14,2.11A7.44,7.44,0,0,1,51.4,93.83ZM56.12,91a2.29,2.29,0,0,0,1-1,3.19,3.19,0,0,0,.34-1.52V81.18a3.26,3.26,0,0,0-.34-1.53,2.41,2.41,0,0,0-1-1,3.33,3.33,0,0,0-2.95,0,2.5,2.5,0,0,0-1,1,3.25,3.25,0,0,0-.33,1.53v7.28A3.19,3.19,0,0,0,52.2,90a2.37,2.37,0,0,0,1,1A3.26,3.26,0,0,0,56.12,91Zm10,2.86a4.9,4.9,0,0,1-2-2.13,7.45,7.45,0,0,1-.71-3.35v-7A7.45,7.45,0,0,1,64.06,78a5,5,0,0,1,2-2.14,6.51,6.51,0,0,1,3.21-.74,6.09,6.09,0,0,1,3,.7,5,5,0,0,1,2,2.11,9.26,9.26,0,0,1,.91,3.49H71.88a4.81,4.81,0,0,0-.44-1.69,2.72,2.72,0,0,0-.87-1,2.23,2.23,0,0,0-1.25-.35,2.56,2.56,0,0,0-1.41.36,2.2,2.2,0,0,0-.89,1,3.72,3.72,0,0,0-.3,1.61v7.06a3.61,3.61,0,0,0,.3,1.59,2.18,2.18,0,0,0,.89,1,2.56,2.56,0,0,0,1.41.36A2.21,2.21,0,0,0,70.57,91a2.4,2.4,0,0,0,.87-1,5,5,0,0,0,.44-1.7h3.34a8.84,8.84,0,0,1-.9,3.49,4.91,4.91,0,0,1-2,2.11,5.94,5.94,0,0,1-3,.7A6.48,6.48,0,0,1,66.11,93.83ZM88.93,78.39V75.26h-11V94.37h11V91.24H81.16v-4.8h6.63V83.32H81.16V78.39Zm12.53,16h3.44L98.72,75.26h-2.3L90.23,94.37h3.43l1-3.32h5.87ZM95.52,88l2-7.06,2,7.06Zm21-12.71V88.62l-6.18-13.36H107v19.1h3.1v-13l6.15,13h3.36V75.26Z"/><path id="logo" d="M48.38,45.8V6.07A6.25,6.25,0,0,0,42,.07H34.5a1.12,1.12,0,0,0-1.12,1.12,1.11,1.11,0,0,0,.37.84c.93,1,1.86,2.59,1.88,5.59.06,10.25,0,29.29,0,38.18,0,14.27,27.44,14.16,35.88,1.74.52-.77-.29-1.69-1-1.11C58.31,56,48.38,51.6,48.38,45.8Zm27-14.25c4.77.07,10.46,3.53,10.46,10.46,0,8.27-7,21.31-36.47,17.31-.55-.07-.33-.77.1-.74,13,1,27.37-4.35,27.37-16.55a3.36,3.36,0,0,0-3.34-3.38h0c-2.92.09-4.3,4.1-8.06,4.13a4.5,4.5,0,0,1-4.32-4.48c0-1,0-3.27,0-4.54a.77.77,0,0,1,.84-.69.81.81,0,0,1,.46.21C68.19,37.51,68.62,31.45,75.42,31.55Zm-8.55-24h-4a1.76,1.76,0,0,1-1.75-1.75V.07h5.75a1.75,1.75,0,0,1,1.75,1.75v4A1.75,1.75,0,0,1,66.87,7.57ZM84.12,9.81H77.87a1.75,1.75,0,0,1-1.75-1.75v-8h8a1.76,1.76,0,0,1,1.75,1.75V8.07A1.74,1.74,0,0,1,84.12,9.81Zm-9.75,7.5h-4a1.75,1.75,0,0,1-1.75-1.75V9.81h5.75a1.75,1.75,0,0,1,1.75,1.75v4A1.75,1.75,0,0,1,74.37,17.31Zm-11,4.5h0a2.24,2.24,0,0,1-2.24-2.25h0V17.31h2.25a2.25,2.25,0,0,1,2.25,2.25h0a2.25,2.25,0,0,1-2.25,2.25Z" fill="#04c"/></svg>