<svg id="icon" xmlns="http://www.w3.org/2000/svg" viewBox="0 0 48 48"><title>ic_mysql</title><path d="M44,41.72a1.1,1.1,0,0,0-.23-.54c-.36-.48-.74-1-1.11-1.42a13.07,13.07,0,0,0-3.73-3.22c-.2-.12-.4-.24-.59-.37l.39-.09c.65-.14,1.3-.26,2-.38l1.08-.2a1.27,1.27,0,0,0,1-.83,1.25,1.25,0,0,0-.31-1.24c-.57-.66-1.17-1.3-1.81-1.91A21.09,21.09,0,0,0,34,27.42a1.49,1.49,0,0,1-.94-.85q-.73-1.59-1.5-3.18l-1.07-2.25c-.16-.36-.31-.72-.47-1.09a16.36,16.36,0,0,0-1-2.09,26.25,26.25,0,0,0-8.4-8.69A12.32,12.32,0,0,0,14.26,7h-.17a.89.89,0,0,1-.63-.15,9.23,9.23,0,0,0-3.4-1.93A8.27,8.27,0,0,0,7.8,4.52H7.59a2.9,2.9,0,0,0-2.79,3,4.42,4.42,0,0,0,1,2.66c.22.3.45.6.68.89s.59.77.87,1.18A5.92,5.92,0,0,1,8,13.56c.17.43.31.87.45,1.32s.28.89.43,1.28A11.1,11.1,0,0,0,11,20a18.27,18.27,0,0,0-.95,5A10.46,10.46,0,0,0,11.52,31,5.86,5.86,0,0,0,13,32.53a2.57,2.57,0,0,0,.92.42,2.39,2.39,0,0,0,2.85-1.8c0-.06,0-.12.05-.18a11,11,0,0,0,1,1.28c.85.81,1.72,1.6,2.59,2.39l1,.89a2.48,2.48,0,0,0,.4.26l5.51,3.06L23,34.24a27.42,27.42,0,0,1-5.77-9.48l-.52-1.43-1.11,1a6.13,6.13,0,0,0-1.84,3.31l-.09.64a9.29,9.29,0,0,1-.27-5.4c.14-.6.35-1.2.56-1.84l.21-.61a2.1,2.1,0,0,0-.56-2.27A6.65,6.65,0,0,1,11.8,15,15.83,15.83,0,0,0,8.5,8.62,4,4,0,0,1,8,7.81a8.37,8.37,0,0,1,3,1.47,4.41,4.41,0,0,0,2.64,1,7.23,7.23,0,0,1,2.34.36,19.63,19.63,0,0,1,7.33,5.26,20,20,0,0,1,3.51,5.41c.66,1.55,1.38,3.09,2.08,4.58L30,28.18a4,4,0,0,0,2.9,2.36A13.45,13.45,0,0,1,37.63,33l-.22,0a25.5,25.5,0,0,0-2.54.65l-.58.17a1.37,1.37,0,0,0-.94.81,1.46,1.46,0,0,0,.17,1.28,3.3,3.3,0,0,1,.23.41,6.69,6.69,0,0,0,.51.83,10.11,10.11,0,0,0,3.83,2.9,15.7,15.7,0,0,1,3.43,2l3.17,2.61Z"/></svg>