<svg id="icon" xmlns="http://www.w3.org/2000/svg" viewBox="0 0 120 48"><title>ic_oracle</title><g id="ic_oracle"><path id="路径_388" data-name="路径 388" d="M21.53,17.91h3.55a6.2,6.2,0,0,1,1.33,12.27l-.47.08c-.61,0-1.23.08-1.85.07h-6.2a6.23,6.23,0,0,1-6.2-6.25v0a6.21,6.21,0,0,1,6-6.11c1.27,0,2.54,0,3.81,0Zm0,2.16H21c-1.13,0-2.27-.08-3.39,0A4,4,0,0,0,18,28.17q3.49.06,7,0a4.05,4.05,0,1,0-.08-8.1h0q-1.69,0-3.39,0Z"/><path id="路径_389" data-name="路径 389" d="M108.12,17.93c-.46.72-.88,1.39-1.33,2-.06.08-.25.09-.39.09-2.22,0-4.45,0-6.67,0A3.92,3.92,0,0,0,96,22.54c-.07.14-.1.29-.17.47h11.63a10.45,10.45,0,0,0-.71,1.15,1.7,1.7,0,0,1-1.87,1.05c-2.84-.07-5.68,0-8.52,0h-.52A3.72,3.72,0,0,0,97,27.1a4.11,4.11,0,0,0,2.93,1.07h8.38a12.09,12.09,0,0,0-.8,1.29,1.46,1.46,0,0,1-1.63.89c-2-.06-4.11,0-6.17,0A6.21,6.21,0,0,1,98.54,18a8.93,8.93,0,0,1,1-.09h8.14Z"/><path id="路径_390" data-name="路径 390" d="M46.78,30.33H43.55a.58.58,0,0,1-.34-.14l-6.75-5.87-.16-.19h.47c2,0,4,0,5.94,0a2.13,2.13,0,0,0,2-1A2,2,0,0,0,44,20.38a2,2,0,0,0-.94-.3c-2.64,0-5.3,0-7.94,0l-.14,0v10.2H32.7V17.94c.11,0,.23,0,.35,0,3.36,0,6.71,0,10.07,0a4.19,4.19,0,0,1,.06,8.37H42.12l0,.1Z"/><path id="路径_391" data-name="路径 391" d="M47.44,30.33l.92-1.46,6.5-10.17A1.78,1.78,0,0,1,57.27,18a1.73,1.73,0,0,1,.71.71l7.09,11.07.34.55c-.94,0-1.8,0-2.67,0-.08,0-.17-.13-.23-.22-.35-.55-.7-1.11-1-1.68a.54.54,0,0,0-.56-.3h-5.7a.62.62,0,0,1-.62-.34c-.35-.59-.74-1.17-1.15-1.81h6.38l-3.4-5.47c-.11.15-.2.26-.27.37L50.4,30a.54.54,0,0,1-.51.3C49.11,30.32,48.33,30.33,47.44,30.33Z"/><path id="路径_392" data-name="路径 392" d="M79.19,28.17c-.38.59-.73,1.09-1,1.63a1,1,0,0,1-1,.54c-2.21,0-4.43,0-6.64,0A6.21,6.21,0,0,1,69.22,18l.17,0a7.79,7.79,0,0,1,1-.09h8.22l.41,0c-.45.71-.87,1.38-1.31,2-.06.09-.26.1-.39.1-2.25,0-4.5,0-6.75,0a4,4,0,0,0-.94,8,3.9,3.9,0,0,0,1.08.13c2.65,0,5.3,0,7.94,0Z"/><path id="路径_393" data-name="路径 393" d="M80.36,17.93h2.36v9.74c0,.5,0,.5.51.5H93.84c-.37.59-.74,1.1-1,1.65a.93.93,0,0,1-1,.52c-3.36,0-6.71,0-10.07,0-1,0-1.43-.44-1.43-1.43v-11Z"/></g></svg>