<svg id="icon" xmlns="http://www.w3.org/2000/svg" viewBox="0 0 24 24"><title>ic_point_increase</title><path id="ic_point_increase" d="M4.83,11.53a1,1,0,1,1-1-1,1,1,0,0,1,1,1Zm15.3,6.24-3-3v2.05H13v2.05h4.1v1.87ZM11.27,4.49a4.66,4.66,0,0,1,.84,2.93V9.17a4.76,4.76,0,0,1-.8,3,2.83,2.83,0,0,1-2.39,1.05,2.87,2.87,0,0,1-2.37-1,4.62,4.62,0,0,1-.84-2.93V7.52a4.82,4.82,0,0,1,.82-3,2.9,2.9,0,0,1,2.38-1A2.88,2.88,0,0,1,11.27,4.49Zm-1,2.75a3.52,3.52,0,0,0-.32-1.72A1.09,1.09,0,0,0,8.9,5a1.07,1.07,0,0,0-1,.51,3.31,3.31,0,0,0-.33,1.61v2.3a3.67,3.67,0,0,0,.31,1.73,1.07,1.07,0,0,0,1,.56,1.06,1.06,0,0,0,1-.54,3.48,3.48,0,0,0,.32-1.65Zm3.5,4.95a4.64,4.64,0,0,1-.84-2.93V7.52a4.7,4.7,0,0,1,.82-3,2.9,2.9,0,0,1,2.38-1,2.87,2.87,0,0,1,2.37,1,4.66,4.66,0,0,1,.84,2.93V9.17a4.85,4.85,0,0,1-.81,3,2.84,2.84,0,0,1-2.38,1,2.85,2.85,0,0,1-2.38-1Zm1-2.78a3.68,3.68,0,0,0,.32,1.73,1.19,1.19,0,0,0,2,0,3.65,3.65,0,0,0,.32-1.66V7.24a3.42,3.42,0,0,0-.33-1.72,1.2,1.2,0,0,0-2,0,3.32,3.32,0,0,0-.34,1.61Z"/></svg>