<svg id="icon" xmlns="http://www.w3.org/2000/svg" viewBox="0 0 48 48"><title>ic_pdf</title><path id="ic_pdf" d="M23.21,24c-.39-1.25-.38-3.67-.15-3.67C23.71,20.34,23.65,23.23,23.21,24Zm-.13,3.69a36.59,36.59,0,0,1-2.22,4.9,28.56,28.56,0,0,1,4.91-1.71A10.07,10.07,0,0,1,23.08,27.7Zm-7.35,9.75c0,.06,1-.42,2.72-3.14-.52.49-2.27,1.91-2.72,3.13Zm12.65-21H39V42.12A1.87,1.87,0,0,1,37.13,44H10.88A1.87,1.87,0,0,1,9,42.13H9V5.87A1.87,1.87,0,0,1,10.87,4H26.5V14.62A1.88,1.88,0,0,0,28.38,16.5Zm-.63,13.42a7.86,7.86,0,0,1-3.34-4.2c.36-1.44.91-3.64.49-5A2,2,0,0,0,22.7,19a2,2,0,0,0-1.54,1.15c-.39,1.43,0,3.45.64,6-.95,2.29-2,4.52-3.19,6.7h0c-2.11,1.08-5.75,3.48-4.25,5.31A2.42,2.42,0,0,0,16,39c1.4,0,2.79-1.4,4.77-4.83A45.45,45.45,0,0,1,27,32.35a11.61,11.61,0,0,0,5,1.52,2,2,0,0,0,1.54-3.39C32.41,29.42,29.26,29.73,27.75,29.92ZM38.45,12.2,30.8,4.55A1.84,1.84,0,0,0,29.47,4H29V14H39v-.48A1.88,1.88,0,0,0,38.45,12.2Zm-5.79,20c.32-.21-.2-.93-3.34-.7C32.22,32.68,32.66,32.15,32.66,32.15Z"/></svg>