<svg id="icon" xmlns="http://www.w3.org/2000/svg" viewBox="0 0 24 24"><title>ic_panel_formula</title><path id="ic_panel_formula" d="M18.3,9H21v2.58H19.45l-1.62,1.8L19,15.56h.89v2.57H17.44L16,15.36,13.5,18.13H10.92V15.56h1.43L14.72,13,14,11.56H9.3C8.63,14,7.89,16.71,7.46,18.23c-.51,1.88-1.8,3.22-3.13,3.26H3V18.92H4.29A3.45,3.45,0,0,0,5,17.54c.38-1.38,1-3.75,1.64-6H4.14V9h3.2C7.6,8,7.82,7.16,8,6.65a4.62,4.62,0,0,1,2.13-3,5.69,5.69,0,0,1,4.13-.41l-.68,2.44a3.25,3.25,0,0,0-2.17.21,2.08,2.08,0,0,0-.93,1.39c-.09.4-.26,1-.44,1.69h5.53l1,2Z"/></svg>