<svg id="icon" xmlns="http://www.w3.org/2000/svg" viewBox="0 0 24 24"><title>ic_point_decrease</title><path id="ic_point_decrease" d="M4.64,10.45a1,1,0,0,1,1,1h0a1,1,0,0,1-1,1h0a1,1,0,0,1-1-1h0A1,1,0,0,1,4.64,10.45Zm8.89,7,2.87,2.88v-2h4v-2h-4V14.58Zm-4-13.77a2.75,2.75,0,0,0-2.29,1,4.54,4.54,0,0,0-.8,2.9V9.25a4.54,4.54,0,0,0,.82,2.83,2.74,2.74,0,0,0,2.28,1,2.75,2.75,0,0,0,2.3-1,4.65,4.65,0,0,0,.78-2.9V7.48a4.5,4.5,0,0,0-.81-2.82A2.77,2.77,0,0,0,9.55,3.68Zm1.28,5.8a3.52,3.52,0,0,1-.31,1.6,1,1,0,0,1-1,.53,1.06,1.06,0,0,1-1-.54,3.63,3.63,0,0,1-.3-1.66V7.18A3.28,3.28,0,0,1,8.6,5.64a1.06,1.06,0,0,1,1-.49,1.07,1.07,0,0,1,1,.52,3.34,3.34,0,0,1,.31,1.65Z"/></svg>