<svg id="icon" xmlns="http://www.w3.org/2000/svg" viewBox="0 0 24 24"><title>ic_panel_visualizer</title><path id="ic_panel_visualizer" d="M21,12a2,2,0,0,1-2,2,2,2,0,0,1-1.74-1H14.89a4,4,0,0,1-4.79,2.88A3.59,3.59,0,0,1,9,15.43L7,17.49a2,2,0,1,1-1.41-1.42L7.6,14a3.86,3.86,0,0,1,0-4l-2-2.05A2,2,0,1,1,7,5.42,2,2,0,0,1,7,6.51L9,8.57a3.94,3.94,0,0,1,5.43,1.35A3.53,3.53,0,0,1,14.89,11h2.42A2,2,0,0,1,21,12Zm-5,5a2,2,0,1,0,2,2A2,2,0,0,0,16,17ZM16,7a2,2,0,1,0-2-2A2,2,0,0,0,16,7Z" style="isolation:isolate"/></svg>
