<svg id="icon" xmlns="http://www.w3.org/2000/svg" viewBox="0 0 24 24"><title>ic_setting</title><path id="ic_setting" d="M19.14,12.94A7.42,7.42,0,0,0,19.2,12a6,6,0,0,0-.07-.94l2-1.58a.49.49,0,0,0,.12-.61L19.36,5.55a.49.49,0,0,0-.59-.22l-2.39,1a7.28,7.28,0,0,0-1.62-.94L14.4,2.81a.48.48,0,0,0-.48-.41H10.08a.47.47,0,0,0-.47.41L9.25,5.35a7.28,7.28,0,0,0-1.62.94l-2.39-1a.47.47,0,0,0-.59.22L2.74,8.87a.46.46,0,0,0,.12.61l2,1.58a5.65,5.65,0,0,0,0,1.88l-2,1.58a.49.49,0,0,0-.12.61l1.92,3.32a.49.49,0,0,0,.59.22l2.39-1a7.28,7.28,0,0,0,1.62.94l.36,2.54a.49.49,0,0,0,.48.41h3.84a.47.47,0,0,0,.47-.41l.36-2.54a6.72,6.72,0,0,0,1.62-.94l2.39,1a.47.47,0,0,0,.59-.22l1.92-3.32a.47.47,0,0,0-.12-.61ZM12,15.6A3.6,3.6,0,1,1,15.6,12,3.6,3.6,0,0,1,12,15.6Z"/></svg>
