<svg id="icon" xmlns="http://www.w3.org/2000/svg" viewBox="0 0 24 24"><title>ic_start_open</title><path id="ic_start_open" d="M10.53,15.15a.88.88,0,0,1-1.24,0,1.25,1.25,0,0,1-.21-.82V12.89a1.28,1.28,0,0,1,.21-.81.73.73,0,0,1,.63-.27.76.76,0,0,1,.64.27,1.29,1.29,0,0,1,.22.81V14.3a1.32,1.32,0,0,1-.22.82h0ZM22,10v7a1,1,0,0,1-1,1H20v2a2,2,0,0,1-2,2H6a2,2,0,0,1-2-2V18H3a1,1,0,0,1-1-1V10A1,1,0,0,1,3,9H4V4A2,2,0,0,1,6,2h8l6,6V9h1A1,1,0,0,1,22,10ZM7.08,16.1v-.78h-2V11.1H4v5ZM18,18H6v2H18ZM8.54,15.67a2.21,2.21,0,0,0,2.79,0,1.79,1.79,0,0,0,.52-1.37V12.9a1.8,1.8,0,0,0-.53-1.37,1.9,1.9,0,0,0-1.4-.5,1.89,1.89,0,0,0-1.39.5A1.79,1.79,0,0,0,8,12.9v1.4A1.76,1.76,0,0,0,8.54,15.67Zm5.74-1.31V12.82a1.11,1.11,0,0,1,.23-.76.78.78,0,0,1,.61-.26.83.83,0,0,1,.59.2.87.87,0,0,1,.21.62h1v0a1.51,1.51,0,0,0-.47-1.17,2,2,0,0,0-1.37-.4,1.91,1.91,0,0,0-1.37.47,1.75,1.75,0,0,0-.51,1.33v1.53a1.73,1.73,0,0,0,.53,1.34,2.15,2.15,0,0,0,1.42.47,2.34,2.34,0,0,0,1.13-.25,1.93,1.93,0,0,0,.67-.57V13.49h-1.8v.69h.72v.9a.69.69,0,0,1-.25.23,1.09,1.09,0,0,1-.47.08.88.88,0,0,1-.66-.25h0A1.17,1.17,0,0,1,14.28,14.36ZM18,8.83,13.17,4H6V9H18Zm1.66,2.27H18.59v5h1.07Z"/></svg>
