<svg id="icon" xmlns="http://www.w3.org/2000/svg" viewBox="0 0 24 24"><title>ic_stock_detail</title><path id="ic_stock_detail" d="M21,8H20V4a1,1,0,0,0-2,0V8H17a1,1,0,0,0-1,1v8a1,1,0,0,0,1,1h1v4a1,1,0,0,0,2,0V18h1a1,1,0,0,0,1-1V9A1,1,0,0,0,21,8Zm-1,8H18V10h2ZM14,7H13V3a1,1,0,0,0-2,0V7H10A1,1,0,0,0,9,8v8a1,1,0,0,0,1,1h1v4a1,1,0,0,0,2,0V17h1a1,1,0,0,0,1-1V8A1,1,0,0,0,14,7Zm-1,8H11V9h2ZM7,8H6V4A1,1,0,0,0,4,4V8H3A1,1,0,0,0,2,9v8a1,1,0,0,0,1,1H4v4a1,1,0,0,0,2,0V18H7a1,1,0,0,0,1-1V9A1,1,0,0,0,7,8ZM6,16H4V10H6Z"/></svg>