<svg id="icon" xmlns="http://www.w3.org/2000/svg" viewBox="0 0 24 24"><title>bg_select_node_empty</title><path id="bg_select_node_empty" d="M24,10.24A4.19,4.19,0,0,0,19.86,6H4.14A4.19,4.19,0,0,0,0,10.24a4.19,4.19,0,0,0,4.14,4.25H16.71v2.63a.23.23,0,0,0,.08.18.22.22,0,0,0,.33,0l1.16-1.22L19,17.85h0a.23.23,0,0,0,.31.13l.66-.29a.26.26,0,0,0,.13-.33l-.75-1.87h1.42a.23.23,0,0,0,.17-.07.26.26,0,0,0,0-.35l-.59-.63A4.2,4.2,0,0,0,24,10.24ZM19.86,13.9h0l-2.71-2.85A.23.23,0,0,0,17,11a.25.25,0,0,0-.24.25V13.9H4.14a3.66,3.66,0,0,1,0-7.31H19.86a3.66,3.66,0,0,1,0,7.31Z" style="isolation:isolate"/></svg>