<svg id="icon" xmlns="http://www.w3.org/2000/svg" viewBox="0 0 24 24"><title>ic_set_zero</title><path id="ic_set_zero" d="M18.13,21H2.88V3H18.13V5H4.88V19H18.13Zm-4.95-8.13a4.09,4.09,0,0,1-.8,2.79,2.94,2.94,0,0,1-4.16,0,4,4,0,0,1-.8-2.79V11.39a4,4,0,0,1,.79-2.78,3,3,0,0,1,4.16,0,3.93,3.93,0,0,1,.8,2.75Zm-1.7-1.72a2.9,2.9,0,0,0-.31-1.58,1.08,1.08,0,0,0-1.51-.24.84.84,0,0,0-.23.23,2.88,2.88,0,0,0-.32,1.55v2a3,3,0,0,0,.31,1.6,1,1,0,0,0,.88.46,1,1,0,0,0,.87-.45,3,3,0,0,0,.31-1.56Zm2.65.85,4,4V13.45h3v-2.9h-3V8Z" style="isolation:isolate"/></svg>