<svg id="icon" xmlns="http://www.w3.org/2000/svg" viewBox="0 0 24 24"><title>ic_start_load</title><path id="ic_start_load" d="M6,2h8l6,6V20a2,2,0,0,1-2,2H6a2,2,0,0,1-2-2V4A2,2,0,0,1,6,2ZM18,20V8.84L13.17,4H6V20ZM11,8h2a.24.24,0,0,1,.24.21l.19,1.32a3.42,3.42,0,0,1,.85.49l1.24-.5.09,0a.25.25,0,0,1,.22.13l1,1.73a.26.26,0,0,1-.06.32l-1.06.83a2.63,2.63,0,0,1,0,.49,3.89,3.89,0,0,1,0,.49l1.07.83a.26.26,0,0,1,.06.32l-1,1.73a.27.27,0,0,1-.22.13l-.09,0L14.27,16a3.7,3.7,0,0,1-.84.49l-.19,1.32A.26.26,0,0,1,13,18H11a.25.25,0,0,1-.25-.21l-.19-1.32A3.42,3.42,0,0,1,9.7,16l-1.24.5-.09,0a.25.25,0,0,1-.22-.13l-1-1.73a.26.26,0,0,1,.06-.32l1.06-.83a4,4,0,0,1,0-1l-1.06-.83a.25.25,0,0,1-.06-.32l1-1.73a.27.27,0,0,1,.22-.13l.09,0L9.7,10a4,4,0,0,1,.85-.49l.19-1.32A.26.26,0,0,1,11,8Zm1,6.5a1.5,1.5,0,1,0-1.5-1.5A1.5,1.5,0,0,0,12,14.51Z"/></svg>
