<?xml version="1.0" encoding="utf-8"?>
<!-- Generator: Adobe Illustrator 24.0.1, SVG Export Plug-In . SVG Version: 6.00 Build 0)  -->
<svg version="1.1" id="icon" xmlns="http://www.w3.org/2000/svg" xmlns:xlink="http://www.w3.org/1999/xlink" x="0px" y="0px"
	 viewBox="0 0 24 24" style="enable-background:new 0 0 24 24;" xml:space="preserve">
<title>ic_tab_duo</title>
<path id="ic_tab_duo" d="M13,15H6c-1.1,0-2-0.9-2-2V6c0-1.1,0.9-2,2-2h7c1.1,0,2,0.9,2,2v2h-2V6H6v7h7v-0.9h2V13
	C15,14.1,14.1,15,13,15 M11,20c-1.1,0-2-0.9-2-2v-2h2v2h7v-7h-7v1H9v-1c0-1.1,0.9-2,2-2h7c1.1,0,2,0.9,2,2v7c0,1.1-0.9,2-2,2H11z"/>
</svg>
