<svg id="icon" xmlns="http://www.w3.org/2000/svg" viewBox="0 0 24 24"><title>ic_team</title><path id="ic_team" d="M9,13.75c-2.34,0-7,1.17-7,3.5V19H16V17.25C16,14.92,11.34,13.75,9,13.75ZM4.34,17A9.76,9.76,0,0,1,9,15.75,9.76,9.76,0,0,1,13.66,17ZM9,12A3.5,3.5,0,1,0,5.5,8.5,3.5,3.5,0,0,0,9,12ZM9,7A1.5,1.5,0,1,1,7.5,8.5,1.5,1.5,0,0,1,9,7Zm7,6.81a4.2,4.2,0,0,1,2,3.44V19h4V17.25C22,15.23,18.5,14.08,16,13.81ZM15,12a3.5,3.5,0,0,0,0-7,3.4,3.4,0,0,0-1.5.35,5.47,5.47,0,0,1,0,6.3A3.4,3.4,0,0,0,15,12Z"/></svg>