<svg id="icon" xmlns="http://www.w3.org/2000/svg" viewBox="0 0 24 24"><title>ic_tab_scs</title><path id="ic_tab_scs" d="M12,10,9,13m3-4M8.76,21.24a5,5,0,0,1-3.54-8.53L8.05,9.88a1,1,0,0,1,1.44,1.39l0,0L6.64,14.12a3,3,0,0,0,0,4.25h0a3.08,3.08,0,0,0,4.24,0l2.83-2.83A1,1,0,0,1,15.12,17l-2.83,2.83A4.93,4.93,0,0,1,8.76,21.24Zm8.48-6.83a1,1,0,0,1-1-1,1,1,0,0,1,.3-.71l2.82-2.83a3,3,0,0,0,0-4.24h0a3.06,3.06,0,0,0-4.24,0L12.29,8.46a1,1,0,0,1-1.41,0,1,1,0,0,1,0-1.39l2.83-2.83a5.12,5.12,0,0,1,7.06,0,5,5,0,0,1,0,7.07L18,14.12A1,1,0,0,1,17.24,14.41Zm-6.36.71a1,1,0,0,1-.71-1.71l4.24-4.24a1,1,0,0,1,1.42.05,1,1,0,0,1,0,1.37l-4.24,4.24A1,1,0,0,1,10.88,15.12Z"/></svg>