<svg id="icon" xmlns="http://www.w3.org/2000/svg" viewBox="0 0 24 24"><title>ic_template_setting</title><path id="ic_template_setting" d="M5,12h7v2H5Zm16.75,5a3.36,3.36,0,0,0-.06-.63l1.14-1-1-1.73-1.45.49a3.78,3.78,0,0,0-1.08-.63L19,12H17l-.3,1.49a3.78,3.78,0,0,0-1.08.63l-1.45-.49-1,1.73,1.14,1a3.34,3.34,0,0,0,0,1.26l-1.14,1,1,1.73,1.45-.49a3.78,3.78,0,0,0,1.08.63L17,22h2l.3-1.49a3.78,3.78,0,0,0,1.08-.63l1.45.49,1-1.73-1.14-1A3.36,3.36,0,0,0,21.75,17ZM18,19a2,2,0,1,1,2-2A2,2,0,0,1,18,19ZM3,17V5H17v5.08a6.29,6.29,0,0,1,2,0V5a2,2,0,0,0-2-2H3A2,2,0,0,0,1,5V17a2,2,0,0,0,2,2h8.29A6.91,6.91,0,0,1,11,17Zm2-7H15V8H5Z"/></svg>