<svg id="icon" xmlns="http://www.w3.org/2000/svg" viewBox="0 0 24 24"><title>ic_team_setting</title><path id="ic_team_setting" d="M20.84,15.5q0-.32-.06-.63l1.14-1-1-1.73-1.45.49A3.92,3.92,0,0,0,18.39,12l-.3-1.49h-2L15.79,12a3.65,3.65,0,0,0-1.08.63l-1.45-.49-1,1.73,1.14,1a3.34,3.34,0,0,0,0,1.26l-1.14,1,1,1.73,1.45-.49a3.65,3.65,0,0,0,1.08.63l.3,1.49h2l.3-1.49a3.92,3.92,0,0,0,1.08-.63l1.45.49,1-1.73-1.14-1Q20.82,15.82,20.84,15.5Zm-3.75,2a2,2,0,1,1,2-2A2,2,0,0,1,17.09,17.5Zm-6.46.65c-.07-.18-.16-.35-.22-.53s-.09-.39-.13-.58a3.84,3.84,0,0,1-.11-.46,5.61,5.61,0,0,1-.08-1.08,6.78,6.78,0,0,1,.13-1.28,2.34,2.34,0,0,1,0-.26c0-.09.05-.17.07-.26a7.25,7.25,0,0,1,.43-1.18l-.67,0c-.3,0-.6,0-.89,0l-.25,0-.63.06L8,12.68c-.16,0-.33.05-.49.09l-.41.09L6.63,13l-.41.13-.42.13-.38.15L5,13.54l-.36.17-.42.2c-.25.13-.5.26-.74.41a2.88,2.88,0,0,0-1,1.08,3,3,0,0,0-.36,1.45V19.5h9.26a8.24,8.24,0,0,1-.54-.9C10.74,18.45,10.69,18.3,10.63,18.15ZM4.09,17.5v-.65a1,1,0,0,1,.4-.81h0a10.81,10.81,0,0,1,3.62-1.36c0,.27,0,.54,0,.82a8.88,8.88,0,0,0,.22,2ZM11,11A4,4,0,1,0,7,7,4,4,0,0,0,11,11Zm0-6.1A2.1,2.1,0,1,1,8.9,7,2.1,2.1,0,0,1,11,4.9Z"/></svg>