<svg id="icon" xmlns="http://www.w3.org/2000/svg" viewBox="0 0 24 24"><title>ic_view_compact_view</title><path id="ic_view_compact_view" d="M13.88,9.46H16v2H14.77l-1.26,1.4.91,1.73h.69v2h-1.9l-1.13-2.15-1.93,2.15h-2v-2H9.26l1.84-2-.58-1.1H6.9c-.52,1.88-1.1,4-1.43,5.18-.4,1.46-1.4,2.5-2.43,2.53H2l0-2s.6,0,1,0a2.56,2.56,0,0,0,.56-1.07c.3-1.07.81-2.91,1.28-4.65H2.89v-2H5.37c.2-.76.37-1.41.48-1.81A3.59,3.59,0,0,1,7.5,5.32,4.47,4.47,0,0,1,10.71,5L10.18,6.9a2.5,2.5,0,0,0-1.68.16,1.6,1.6,0,0,0-.72,1.08c-.07.31-.2.77-.34,1.31h4.29L12.52,11Zm3.63,3.2,4.5,4.5v-9Z" style="isolation:isolate"/></svg>
