<svg id="icon" xmlns="http://www.w3.org/2000/svg" viewBox="0 0 24 24"><title>ic_view_editer_view</title><path id="ic_view_editer_view" d="M13.88,9.46H16v2H14.77l-1.26,1.4.91,1.73h.69v2h-1.9l-1.13-2.15-1.93,2.15h-2v-2H9.26l1.84-2-.58-1.1H6.9c-.52,1.89-1.1,4-1.43,5.19-.4,1.46-1.4,2.5-2.43,2.53H2l0-2s.6,0,1,0a2.5,2.5,0,0,0,.56-1.07c.3-1.06.81-2.91,1.28-4.65H2.89v-2H5.37c.2-.76.37-1.4.48-1.8A3.59,3.59,0,0,1,7.5,5.32,4.52,4.52,0,0,1,10.71,5L10.18,6.9a2.53,2.53,0,0,0-1.69.16,1.65,1.65,0,0,0-.71,1.08c-.08.31-.2.77-.35,1.32h4.29l.8,1.51ZM22,12.66l-4.5-4.5v9Z" style="isolation:isolate"/></svg>
