<?xml version="1.0" encoding="utf-8"?>
<!-- Generator: Adobe Illustrator 24.3.0, SVG Export Plug-In . SVG Version: 6.00 Build 0)  -->
<svg version="1.1" id="图层_1" xmlns="http://www.w3.org/2000/svg" xmlns:xlink="http://www.w3.org/1999/xlink" x="0px" y="0px"
	 viewBox="0 0 24 24" style="enable-background:new 0 0 24 24;" xml:space="preserve">
<style type="text/css">
	.st0{fill:#262E3E;}
	.st1{fill:#E5E6E8;}
	.st2{fill:#E5E6E8;stroke:#262E3E;stroke-miterlimit:10;}
</style>
<g>
	<g>
		<rect x="5" y="8" class="st0" width="12" height="1"/>
	</g>
	<g>
		<rect x="5" y="11" class="st0" width="6" height="1"/>
	</g>
	<g>
		<rect x="5" y="14" class="st0" width="6" height="1"/>
	</g>
	<polygon class="st0" points="3,22 3,2 21,2 21,9 22,9 22,1 2,1 2,23 11,23 11,22 	"/>
	<g>
		<path class="st1" d="M18,21.5c-2.5,0-4.5-2-4.5-4.5s2-4.5,4.5-4.5s4.5,2,4.5,4.5S20.5,21.5,18,21.5z"/>
		<path class="st0" d="M18,13c2.2,0,4,1.8,4,4s-1.8,4-4,4s-4-1.8-4-4S15.8,13,18,13 M18,12c-2.8,0-5,2.2-5,5s2.2,5,5,5s5-2.2,5-5
			S20.8,12,18,12L18,12z"/>
	</g>
	<line class="st2" x1="20.8" y1="20.2" x2="23.3" y2="22.7"/>
</g>
</svg>
