<?xml version="1.0" encoding="utf-8"?>
<!-- Generator: Adobe Illustrator 24.3.0, SVG Export Plug-In . SVG Version: 6.00 Build 0)  -->
<svg version="1.1" id="图层_1" xmlns="http://www.w3.org/2000/svg" xmlns:xlink="http://www.w3.org/1999/xlink" x="0px" y="0px"
	 viewBox="0 0 24 24" style="enable-background:new 0 0 24 24;" xml:space="preserve">
<style type="text/css">
	.st0{fill:#262E3E;}
	.st1{fill:none;stroke:#262E3E;stroke-linejoin:round;stroke-miterlimit:2;}
</style>
<rect x="13.1" y="17.1" class="st0" width="9" height="1"/>
<rect x="13.1" y="17.1" transform="matrix(-1.836970e-16 1 -1 -1.836970e-16 35.1487 2.848101e-02)" class="st0" width="9" height="1"/>
<g>
	<polygon class="st0" points="3,22 3,2 21,2 21,9 22,9 22,1 2,1 2,23 11,23 11,22 	"/>
	<path class="st1" d="M7.6,5C7.1,5,6.3,5.2,6.3,6s0,1.2,0,1.8c0,0.6-1.3,1-1.3,1s1.3,0.4,1.3,1c0,0.6,0,1.4,0,2.2s0.8,1,1.3,1"/>
	<path class="st1" d="M11.7,5C12.3,5,13,5.2,13,6s0,1.2,0,1.8c0,0.6,1.3,1,1.3,1S13,9.2,13,9.8c0,0.6,0,1.4,0,2.2s-0.8,1-1.3,1"/>
</g>
</svg>
